<svg xmlns="http://www.w3.org/2000/svg" xmlns:xlink="http://www.w3.org/1999/xlink" viewBox="0 0 512 512"><defs><style>.cls-1{fill:#fff;}.cls-2{fill:url(#linear-gradient);}</style><linearGradient id="linear-gradient" x1="32" y1="256" x2="480" y2="256" gradientUnits="userSpaceOnUse"><stop offset="0" stop-color="#9164ff"/><stop offset="0.725" stop-color="#8bfff4"/><stop offset="1" stop-color="#8bfff4"/></linearGradient></defs><title>Logo-Blue</title><g id="Layer_3" data-name="Layer 3"><path class="cls-1" d="M414.3921,97.6079A224,224,0,0,0,32,256v48a16,16,0,0,0,16,16H464a16,16,0,0,0,16-16V256A222.5338,222.5338,0,0,0,414.3921,97.6079Z"/><path class="cls-2" d="M414.3916,97.6079A224,224,0,0,0,32,256v48a16,16,0,0,0,16,16H96v48a16.0183,16.0183,0,0,1-16,16,16,16,0,0,0,0,32,48.054,48.054,0,0,0,48-48V320h64V432a16.0183,16.0183,0,0,1-16,16,16,16,0,0,0,0,32,48.054,48.054,0,0,0,48-48V320h64V432a48.054,48.054,0,0,0,48,48,16,16,0,0,0,0-32,16.0183,16.0183,0,0,1-16-16V320h64v48a48.054,48.054,0,0,0,48,48,16,16,0,0,0,0-32,16.0183,16.0183,0,0,1-16-16V320h48a16,16,0,0,0,16-16V256A222.5322,222.5322,0,0,0,414.3916,97.6079Zm-228.9,59.273a127.8013,127.8013,0,0,0-28.1279,28.3862,16,16,0,0,1-26.086-18.5342,157.9553,157.9553,0,0,1,35.2315-35.6138,16,16,0,1,1,18.9824,25.7618Z"/></g></svg>