<?xml version="1.0" encoding="UTF-8" standalone="no"?>
<svg
   xmlns:dc="http://purl.org/dc/elements/1.1/"
   xmlns:cc="http://creativecommons.org/ns#"
   xmlns:rdf="http://www.w3.org/1999/02/22-rdf-syntax-ns#"
   xmlns:svg="http://www.w3.org/2000/svg"
   xmlns="http://www.w3.org/2000/svg"
   xmlns:xlink="http://www.w3.org/1999/xlink"
   xmlns:sodipodi="http://sodipodi.sourceforge.net/DTD/sodipodi-0.dtd"
   xmlns:inkscape="http://www.inkscape.org/namespaces/inkscape"
   inkscape:version="1.0beta2 (2b71d25, 2019-12-03)"
   sodipodi:docname="Logo-Chatsvg.svg"
   id="svg919"
   version="1.1"
   viewBox="0 0 512 512">
  <style></style>
  <metadata
     id="metadata923">
    <rdf:RDF>
      <cc:Work
         rdf:about="">
        <dc:format>image/svg+xml</dc:format>
        <dc:type
           rdf:resource="http://purl.org/dc/dcmitype/StillImage" />
        <dc:title>Logo Pink</dc:title>
      </cc:Work>
    </rdf:RDF>
  </metadata>
  <sodipodi:namedview
     inkscape:current-layer="svg919"
     inkscape:window-maximized="1"
     inkscape:window-y="0"
     inkscape:window-x="0"
     inkscape:cy="286.24926"
     inkscape:cx="353.95477"
     inkscape:zoom="1.1591797"
     inkscape:snap-others="true"
     inkscape:snap-object-midpoints="true"
     showgrid="false"
     id="namedview921"
     inkscape:window-height="1366"
     inkscape:window-width="2560"
     inkscape:pageshadow="2"
     inkscape:pageopacity="0"
     guidetolerance="10"
     gridtolerance="10"
     objecttolerance="10"
     borderopacity="1"
     inkscape:document-rotation="0"
     bordercolor="#666666"
     pagecolor="#ffffff" />
  <defs
     id="defs910">
    <linearGradient
       id="linearGradient960"
       inkscape:collect="always">
      <stop
         id="stop956"
         offset="0"
         style="stop-color:#8dcff3;stop-opacity:1;" />
      <stop
         id="stop958"
         offset="1"
         style="stop-color:#9164ff;stop-opacity:0" />
    </linearGradient>
    <linearGradient
       id="linear-gradient"
       x1="32"
       y1="256"
       x2="480"
       y2="256"
       gradientUnits="userSpaceOnUse">
      <stop
         offset="0"
         stop-color="#ee64f6"
         id="stop949" />
      <stop
         offset="0.5169"
         stop-color="#ff9494"
         id="stop951" />
      <stop
         offset="1"
         stop-color="#ff9494"
         id="stop953" />
    </linearGradient>
    <style
       id="style901">.cls-1{fill:#fff;}.cls-2{fill:url(#linear-gradient);}</style>
    <linearGradient
       gradientUnits="userSpaceOnUse"
       y2="256"
       x2="480"
       y1="256"
       x1="32"
       id="linear-gradient-3">
      <stop
         id="stop903"
         stop-color="#ee64f6"
         offset="0" />
      <stop
         id="stop905"
         stop-color="#ff9494"
         offset="0.5169" />
      <stop
         id="stop907"
         stop-color="#ff9494"
         offset="1" />
    </linearGradient>
    <linearGradient
       gradientUnits="userSpaceOnUse"
       y2="687.23492"
       x2="614.12061"
       y1="36.293808"
       x1="72.023697"
       id="linearGradient962"
       xlink:href="#linearGradient960"
       inkscape:collect="always" />
  </defs>
  <title
     id="title912">Logo Pink</title>
  <circle
     r="255.95668"
     cy="255.99982"
     cx="256.00043"
     id="path939"
     style="fill:url(#linearGradient962);fill-opacity:1;stroke-width:8.68694" />
  <g
     transform="matrix(0.74854564,0,0,0.74854564,64.37242,64.37227)"
     data-name="Layer 4"
     id="Layer_4">
    <path
       inkscape:connector-curvature="0"
       id="path914"
       d="M 414.3921,97.6079 A 224,224 0 0 0 32,256 v 48 a 16,16 0 0 0 16,16 h 416 a 16,16 0 0 0 16,-16 V 256 A 222.5338,222.5338 0 0 0 414.3921,97.6079 Z"
       class="cls-1" />
    <path
       inkscape:connector-curvature="0"
       style="fill:url(#linear-gradient-3)"
       id="path916"
       d="M 414.3921,97.6079 A 224,224 0 0 0 32,256 v 48 a 16,16 0 0 0 16,16 h 48 v 48 a 16.0183,16.0183 0 0 1 -16,16 16,16 0 0 0 0,32 48.0543,48.0543 0 0 0 48,-48 v -48 h 64 v 112 a 16.0183,16.0183 0 0 1 -16,16 16,16 0 0 0 0,32 48.0543,48.0543 0 0 0 48,-48 V 320 h 64 v 112 a 48.0543,48.0543 0 0 0 48,48 16,16 0 0 0 0,-32 16.0183,16.0183 0 0 1 -16,-16 V 320 h 64 v 48 a 48.0543,48.0543 0 0 0 48,48 16,16 0 0 0 0,-32 16.0183,16.0183 0 0 1 -16,-16 v -48 h 48 a 16,16 0 0 0 16,-16 V 256 A 222.5338,222.5338 0 0 0 414.3921,97.6079 Z m -228.9009,59.273 a 127.8253,127.8253 0 0 0 -28.1284,28.3862 16,16 0 1 1 -26.0859,-18.5342 157.9679,157.9679 0 0 1 35.2319,-35.6138 16.000014,16.000014 0 1 1 18.9824,25.7618 z"
       class="cls-2" />
  </g>
</svg>
