<svg xmlns="http://www.w3.org/2000/svg" xmlns:xlink="http://www.w3.org/1999/xlink" viewBox="0 0 512 512"><defs><style>.cls-1{fill:#fff;}.cls-2{fill:url(#linear-gradient);}</style><linearGradient id="linear-gradient" x1="32" y1="256" x2="480" y2="256" gradientUnits="userSpaceOnUse"><stop offset="0" stop-color="#ee64f6"/><stop offset="0.5169" stop-color="#ff9494"/><stop offset="1" stop-color="#ff9494"/></linearGradient></defs><title>1-JELLY-PARTY-512PX</title><g id="Layer_4" data-name="Layer 4"><path class="cls-1" d="M414.3921,97.6079A224,224,0,0,0,32,256v48a16,16,0,0,0,16,16H464a16,16,0,0,0,16-16V256A222.5338,222.5338,0,0,0,414.3921,97.6079Z"/><path class="cls-2" d="M414.3921,97.6079A224,224,0,0,0,32,256v48a16,16,0,0,0,16,16H96v48a16.0183,16.0183,0,0,1-16,16,16,16,0,0,0,0,32,48.0543,48.0543,0,0,0,48-48V320h64V432a16.0183,16.0183,0,0,1-16,16,16,16,0,0,0,0,32,48.0543,48.0543,0,0,0,48-48V320h64V432a48.0543,48.0543,0,0,0,48,48,16,16,0,0,0,0-32,16.0183,16.0183,0,0,1-16-16V320h64v48a48.0543,48.0543,0,0,0,48,48,16,16,0,0,0,0-32,16.0183,16.0183,0,0,1-16-16V320h48a16,16,0,0,0,16-16V256A222.5338,222.5338,0,0,0,414.3921,97.6079Zm-228.9009,59.273a127.8253,127.8253,0,0,0-28.1284,28.3862,16,16,0,1,1-26.0859-18.5342,157.9679,157.9679,0,0,1,35.2319-35.6138,16,16,0,1,1,18.9824,25.7618Z"/></g></svg>